<svg xmlns="http://www.w3.org/2000/svg" version="1.1" xmlns:xlink="http://www.w3.org/1999/xlink" xmlns:svgjs="http://svgjs.dev/svgjs" width="1000" height="707" viewBox="0 0 1000 707"><g transform="matrix(1,0,0,1,-0.6060606060606233,-0.35349999999994)"><svg viewBox="0 0 396 280" data-background-color="#ffffff" preserveAspectRatio="xMidYMid meet" height="707" width="1000" xmlns="http://www.w3.org/2000/svg" xmlns:xlink="http://www.w3.org/1999/xlink"><g id="tight-bounds" transform="matrix(1,0,0,1,0.2400000000000091,0.13999999999998636)"><svg viewBox="0 0 395.52 279.72" height="279.72" width="395.52"><g><svg viewBox="0 0 395.52 279.72" height="279.72" width="395.52"><g><svg viewBox="0 0 395.52 279.72" height="279.72" width="395.52"><g><svg viewBox="0 0 395.52 279.72" height="279.72" width="395.52"><g><svg viewBox="0 0 395.52 279.72" height="279.72" width="395.52"><g transform="matrix(1,0,0,1,142.22849169692586,73.92936372216631)"><svg viewBox="0 0 111.0630166061483 131.8612725556674" height="131.8612725556674" width="111.0630166061483"><g><svg xmlns="http://www.w3.org/2000/svg" xmlns:xlink="http://www.w3.org/1999/xlink" version="1.1" x="0" y="0" viewBox="12.940999984741211 6.5749969482421875 74.55199432373047 88.51300048828125" enable-background="new 0 0 100 100" xml:space="preserve" height="131.8612725556674" width="111.0630166061483" class="icon-o-0" data-fill-palette-color="accent" id="o-0"><g fill="#6936f5" data-fill-palette-color="accent"><path d="M49.84 65.908c1.168-0.838 2.615-3.049 3.156-5.08 0.143-0.377 0.227-0.781 0.227-1.209 0-0.053-0.006-0.105-0.01-0.158 0-0.008 0.002-0.016 0.002-0.023 0-0.27-0.039-0.486-0.107-0.674-0.379-1.453-1.695-2.527-3.268-2.527-1.869 0-3.383 1.516-3.383 3.383 0 0.125 0.008 0.248 0.021 0.369C46.687 62.004 48.461 64.92 49.84 65.908z" fill="#6936f5" data-fill-palette-color="accent"></path><path d="M87.431 59.781c0.035-0.127 0.06-0.258 0.06-0.396 0-4.298-3.497-7.795-7.795-7.795H57.604l-0.043-27.747c0-0.154-0.03-0.299-0.073-0.438 0.657-0.159 1.147-0.748 1.147-1.454v-6.584c0-4.848-3.945-8.792-8.795-8.792-4.847 0-8.791 3.944-8.791 8.792v6.584c0 0.693 0.473 1.271 1.112 1.443-0.051 0.151-0.085 0.311-0.084 0.479l0.042 27.717H20.736c-4.298 0-7.795 3.497-7.795 7.795 0 0.14 0.025 0.273 0.062 0.401-0.028 0.2-0.062 0.398-0.062 0.606 0 2.443 1.988 4.432 4.433 4.432s4.433-1.988 4.433-4.432c0-2.438-1.979-4.423-4.417-4.432 0.865-0.846 2.044-1.371 3.346-1.371h22.865c-1.109 1.376-1.777 3.123-1.777 5.023 0 0.295 0.019 0.583 0.048 0.867 0.146 1.419 0.621 2.979 1.291 4.516-2.719-1.642-5.986-3.008-9.54-3.291l-0.004-2.889c-0.001-0.828-0.672-1.498-1.5-1.498 0 0-0.001 0-0.002 0-0.829 0.001-1.499 0.674-1.498 1.502l0.047 34.771c0.001 0.828 0.672 1.498 1.5 1.498 0 0 0.001 0 0.002 0 0.829-0.001 1.499-0.674 1.498-1.502l-0.039-28.866c8.069 0.784 14.786 8.41 15.05 8.715l0.04 20.123c0.001 0.827 0.673 1.497 1.5 1.497 0.001 0 0.002 0 0.003 0 0.828-0.002 1.499-0.675 1.497-1.503l-0.04-20.36c1.238-1.359 7.483-7.795 14.896-8.479l0.039 28.782c0.001 0.828 0.673 1.498 1.5 1.498 0.001 0 0.001 0 0.002 0 0.828-0.001 1.499-0.674 1.498-1.502l-0.047-34.77c-0.001-0.828-0.673-1.498-1.5-1.498-0.001 0-0.001 0-0.002 0-0.828 0.001-1.499 0.674-1.498 1.502l0.004 2.973c-3.896 0.297-7.442 1.906-10.311 3.749 0.459-1.018 0.84-2.049 1.109-3.045 0.336-0.903 0.506-1.842 0.506-2.79 0-0.088-0.005-0.176-0.014-0.321 0-0.012 0-0.021 0-0.03 0-0.64-0.089-1.209-0.271-1.738-0.296-1.097-0.811-2.088-1.49-2.934h23.597c1.302 0 2.481 0.525 3.346 1.371-2.435 0.01-4.414 1.993-4.414 4.432 0 2.443 1.988 4.432 4.432 4.432 2.444 0 4.434-1.988 4.434-4.432C87.492 60.184 87.459 59.983 87.431 59.781zM18.807 60.393c0 0.789-0.643 1.432-1.433 1.432s-1.433-0.643-1.433-1.432c0-0.79 0.643-1.434 1.433-1.434S18.807 59.603 18.807 60.393zM45.089 32.188c4.578-0.803 7.633-2.466 9.479-3.847l0.009 5.702c-1.222 1.17-4.177 3.438-9.478 4.447L45.089 32.188zM54.561 23.848l0.003 1.875c-1.229 1.174-4.185 3.434-9.478 4.438l-0.01-6.293c0-0.146-0.028-0.284-0.067-0.417h9.611C54.585 23.578 54.561 23.709 54.561 23.848zM45.102 40.517c4.583-0.806 7.636-2.474 9.479-3.855l0.009 5.7c-1.214 1.166-4.169 3.442-9.478 4.456L45.102 40.517zM44.049 15.366c0-3.194 2.598-5.792 5.791-5.792 3.195 0 5.795 2.599 5.795 5.792v5.084H44.049V15.366zM45.115 48.846c4.586-0.809 7.638-2.481 9.478-3.863l0.011 6.607h-9.485L45.115 48.846zM54.703 58.344c0.012 0.044 0.024 0.087 0.04 0.13 0.078 0.217 0.116 0.475 0.118 0.718-0.003 0.051-0.005 0.125-0.003 0.175l0.015 0.247c0 0.607-0.113 1.211-0.337 1.794-0.019 0.049-0.035 0.1-0.048 0.15-0.841 3.159-2.897 6.476-4.642 8.215-2.155-2.137-4.672-6.52-4.99-9.602-0.019-0.184-0.032-0.368-0.032-0.558 0-2.77 2.253-5.023 5.023-5.023C52.129 54.59 54.126 56.134 54.703 58.344zM83.059 61.824c-0.789 0-1.432-0.643-1.432-1.432 0-0.79 0.643-1.434 1.432-1.434 0.79 0 1.434 0.644 1.434 1.434C84.492 61.182 83.849 61.824 83.059 61.824z" fill="#6936f5" data-fill-palette-color="accent"></path></g></svg></g></svg></g><path d="M86.121 105.105L82.822 103.913C82.201 104.956 81.422 105.846 80.482 106.581 79.542 107.316 78.502 107.875 77.36 108.256 76.225 108.64 75.028 108.828 73.769 108.821 72.504 108.811 71.243 108.585 69.985 108.143V108.143C69.03 107.808 68.154 107.373 67.356 106.839 66.558 106.305 65.847 105.696 65.225 105.014 64.602 104.331 64.08 103.59 63.658 102.789 63.236 101.989 62.928 101.155 62.732 100.289 62.538 99.417 62.463 98.528 62.506 97.622 62.551 96.71 62.732 95.803 63.049 94.9V94.9C63.365 94.003 63.79 93.185 64.325 92.445 64.863 91.699 65.479 91.049 66.173 90.496 66.87 89.936 67.633 89.476 68.463 89.116 69.293 88.755 70.164 88.503 71.077 88.36 71.992 88.21 72.928 88.177 73.885 88.259 74.842 88.342 75.797 88.551 76.752 88.886V88.886C78.029 89.335 79.166 89.959 80.16 90.758 81.162 91.559 81.985 92.476 82.63 93.507 83.282 94.54 83.739 95.651 84.003 96.838 84.259 98.029 84.285 99.234 84.081 100.453V100.453C84.293 100.223 84.512 99.999 84.741 99.782 84.972 99.559 85.193 99.332 85.404 99.102 85.622 98.874 85.819 98.643 85.996 98.408 86.168 98.164 86.31 97.906 86.42 97.633V97.633C86.516 97.362 86.573 97.085 86.593 96.802 86.612 96.519 86.586 96.245 86.512 95.98 86.436 95.721 86.306 95.473 86.122 95.234 85.944 94.997 85.693 94.793 85.369 94.622V94.622L87.848 92.209C88.459 92.511 88.973 92.895 89.39 93.36 89.806 93.825 90.12 94.345 90.331 94.919 90.542 95.494 90.647 96.103 90.645 96.747 90.652 97.388 90.544 98.027 90.319 98.666V98.666C90.138 99.182 89.856 99.663 89.475 100.109 89.098 100.563 88.708 100.992 88.306 101.394 87.901 101.803 87.524 102.185 87.175 102.54 86.829 102.904 86.6 103.248 86.487 103.57V103.57C86.439 103.706 86.393 103.827 86.348 103.935 86.303 104.042 86.264 104.152 86.232 104.264 86.202 104.369 86.174 104.49 86.148 104.626 86.131 104.757 86.122 104.917 86.121 105.105ZM79.549 100.697V100.697C79.816 99.936 79.896 99.182 79.79 98.434 79.683 97.686 79.429 96.984 79.029 96.329 78.62 95.678 78.085 95.095 77.425 94.581 76.766 94.066 76.016 93.661 75.178 93.367V93.367C74.332 93.07 73.487 92.918 72.642 92.91 71.798 92.897 71.016 93.02 70.294 93.281 69.563 93.546 68.923 93.934 68.374 94.444 67.829 94.963 67.425 95.596 67.162 96.345V96.345C66.897 97.1 66.815 97.85 66.915 98.595 67.024 99.337 67.282 100.036 67.689 100.694 68.091 101.343 68.625 101.929 69.289 102.452 69.953 102.975 70.707 103.385 71.553 103.682V103.682C72.391 103.977 73.23 104.127 74.069 104.132 74.908 104.137 75.691 104.013 76.417 103.761 77.14 103.5 77.775 103.115 78.324 102.605 78.875 102.088 79.283 101.452 79.549 100.698ZM72.071 83.228L68.732 81.359 72.865 73.975 76.204 75.844 75.257 77.535 82.892 81.809C83.59 82.2 84.226 82.45 84.799 82.559 85.369 82.674 85.89 82.676 86.36 82.563 86.822 82.453 87.232 82.244 87.593 81.936 87.953 81.629 88.262 81.245 88.519 80.786V80.786C88.789 80.302 88.973 79.833 89.071 79.379 89.166 78.915 89.146 78.461 89.011 78.017 88.869 77.569 88.596 77.134 88.19 76.711 87.778 76.284 87.199 75.863 86.454 75.445V75.445L78.819 71.172 77.722 73.132 74.383 71.263 78.516 63.879 81.855 65.748 81.033 67.216 88.194 71.223C89.488 71.948 90.536 72.778 91.338 73.712 92.136 74.653 92.699 75.642 93.027 76.679 93.361 77.721 93.465 78.782 93.338 79.862 93.211 80.943 92.865 81.988 92.301 82.996V82.996C91.746 83.987 91.046 84.818 90.2 85.488 89.352 86.15 88.409 86.609 87.372 86.867 86.325 87.127 85.207 87.172 84.018 87 82.832 86.822 81.622 86.388 80.387 85.696V85.696L73.003 81.563ZM84.575 62.69L81.267 60.093 91.632 46.896 97.286 51.337 94.486 54.902 92.139 53.059 88.794 57.318 92.061 59.884 94.646 56.592 97.816 59.082 95.231 62.373 99.071 65.389 102.416 61.129 99.48 58.824 102.28 55.258 108.217 59.921 97.853 73.118 94.852 70.761 96.22 69.019 85.943 60.948ZM107.086 42L106.239 41.107C105.983 40.906 105.692 40.763 105.365 40.677 105.034 40.596 104.693 40.574 104.344 40.613 103.994 40.662 103.648 40.764 103.305 40.919 102.963 41.075 102.65 41.286 102.367 41.554V41.554C102.114 41.794 101.902 42.047 101.73 42.314 101.558 42.58 101.442 42.845 101.382 43.11 101.327 43.379 101.331 43.648 101.397 43.915 101.462 44.183 101.61 44.439 101.841 44.682V44.682C102.128 44.985 102.423 45.162 102.726 45.214 103.024 45.27 103.332 45.256 103.649 45.173 103.96 45.094 104.273 44.972 104.587 44.806 104.896 44.636 105.21 44.479 105.528 44.338V44.338L109.18 42.629C109.689 42.401 110.225 42.246 110.789 42.164 111.347 42.078 111.908 42.088 112.471 42.195 113.039 42.297 113.6 42.501 114.153 42.806 114.71 43.106 115.248 43.529 115.766 44.075V44.075C116.466 44.815 116.972 45.622 117.282 46.496 117.588 47.365 117.702 48.251 117.625 49.153 117.547 50.055 117.279 50.955 116.82 51.852 116.365 52.745 115.721 53.586 114.888 54.376V54.376C114.302 54.931 113.687 55.391 113.044 55.756 112.396 56.116 111.738 56.377 111.071 56.538 110.404 56.699 109.745 56.759 109.093 56.717 108.441 56.675 107.816 56.523 107.219 56.26V56.26L106.184 57.241 103.305 54.204 106.96 50.739 107.553 51.365C107.84 51.667 108.151 51.901 108.485 52.064 108.829 52.228 109.187 52.313 109.559 52.318 109.936 52.319 110.321 52.232 110.712 52.059 111.109 51.881 111.506 51.604 111.903 51.227V51.227C112.508 50.653 112.838 50.077 112.892 49.498 112.937 48.919 112.724 48.381 112.253 47.885V47.885C112.009 47.627 111.752 47.465 111.483 47.4 111.209 47.329 110.929 47.322 110.642 47.377 110.355 47.423 110.068 47.507 109.779 47.63 109.481 47.752 109.197 47.88 108.927 48.013V48.013L105.907 49.449C105.343 49.729 104.742 49.94 104.105 50.083 103.467 50.235 102.818 50.275 102.157 50.205 101.501 50.139 100.851 49.949 100.206 49.637 99.561 49.325 98.94 48.854 98.343 48.223V48.223C97.656 47.499 97.176 46.724 96.903 45.899 96.635 45.079 96.558 44.243 96.673 43.39 96.788 42.537 97.084 41.696 97.56 40.867 98.033 40.033 98.666 39.24 99.46 38.487V38.487C100.085 37.895 100.732 37.419 101.399 37.059 102.066 36.7 102.726 36.442 103.379 36.285 104.031 36.128 104.652 36.068 105.241 36.103 105.83 36.138 106.362 36.251 106.835 36.443V36.443L107.848 35.483 110.741 38.535ZM124.204 45.992L122.01 42.87 123.797 41.614 115.982 30.495 113.884 31.97 115.453 34.202 111.744 36.809 108.058 31.565 123.749 20.535 127.436 25.779 123.702 28.404 122.133 26.172 119.758 27.841 127.574 38.96 129.394 37.68 131.589 40.801ZM129.135 22.354L127.238 18.602 142.212 11.028 145.457 17.445 141.411 19.491 140.064 16.827 135.231 19.271 137.106 22.978 140.841 21.09 142.66 24.687 138.925 26.575 141.129 30.932 145.962 28.488 144.277 25.156 148.322 23.11 151.729 29.847 136.755 37.42 135.033 34.015 137.01 33.015 131.113 21.354ZM147.721 13.148L146.552 9.505 157.179 6.098C158.215 5.766 159.186 5.626 160.094 5.68 161.006 5.725 161.821 5.916 162.539 6.253 163.266 6.594 163.886 7.06 164.398 7.65 164.917 8.237 165.295 8.902 165.533 9.645V9.645C165.751 10.322 165.867 10.942 165.882 11.504 165.904 12.064 165.838 12.588 165.686 13.075 165.539 13.56 165.309 14.018 164.995 14.449 164.689 14.884 164.316 15.309 163.874 15.724V15.724C164.397 15.808 164.907 16.032 165.404 16.397 165.902 16.761 166.358 17.29 166.774 17.982V17.982L168.284 20.374 169.945 19.842 171.217 23.742 165.396 25.609 163.067 21.099C162.807 20.558 162.53 20.108 162.236 19.75 161.941 19.392 161.616 19.127 161.259 18.954 160.902 18.781 160.505 18.697 160.068 18.7 159.637 18.702 159.152 18.789 158.612 18.963V18.963L156.902 19.511 158.302 23.877 160.148 23.285 161.313 26.918 152.992 29.586 151.826 25.953 153.907 25.286 149.801 12.481ZM156.833 10.226L154.196 11.072 155.756 15.936 158.393 15.09C158.901 14.927 159.338 14.733 159.704 14.508 160.078 14.288 160.377 14.034 160.601 13.747 160.823 13.453 160.964 13.131 161.024 12.782 161.085 12.432 161.048 12.049 160.914 11.632V11.632C160.666 10.857 160.192 10.341 159.492 10.085 158.8 9.832 157.914 9.88 156.833 10.226ZM180.115 8.422L179.922 7.206C179.825 6.896 179.666 6.613 179.446 6.357 179.218 6.102 178.95 5.892 178.64 5.726 178.324 5.569 177.981 5.457 177.611 5.391 177.24 5.325 176.862 5.322 176.477 5.383V5.383C176.133 5.437 175.815 5.526 175.522 5.648 175.23 5.77 174.984 5.923 174.785 6.107 174.587 6.298 174.439 6.522 174.341 6.78 174.243 7.038 174.221 7.332 174.273 7.663V7.663C174.338 8.075 174.481 8.388 174.702 8.602 174.916 8.818 175.177 8.981 175.485 9.091 175.787 9.203 176.114 9.279 176.466 9.32 176.818 9.355 177.165 9.404 177.507 9.467V9.467L181.485 10.126C182.034 10.226 182.564 10.402 183.074 10.654 183.584 10.898 184.04 11.224 184.444 11.631 184.854 12.037 185.201 12.522 185.484 13.087 185.774 13.65 185.977 14.303 186.095 15.046V15.046C186.254 16.053 186.214 17.004 185.975 17.9 185.735 18.79 185.327 19.585 184.752 20.285 184.178 20.985 183.447 21.574 182.561 22.054 181.681 22.532 180.674 22.861 179.539 23.04V23.04C178.742 23.166 177.975 23.198 177.238 23.134 176.5 23.064 175.811 22.906 175.17 22.662 174.529 22.417 173.951 22.093 173.437 21.689 172.924 21.286 172.495 20.807 172.151 20.252V20.252L170.743 20.475 170.089 16.341 175.064 15.555 175.198 16.406C175.263 16.818 175.387 17.186 175.57 17.51 175.761 17.84 176.008 18.112 176.312 18.327 176.623 18.541 176.989 18.688 177.409 18.766 177.837 18.844 178.321 18.84 178.861 18.755V18.755C179.685 18.625 180.284 18.336 180.656 17.89 181.021 17.437 181.15 16.874 181.043 16.198V16.198C180.987 15.847 180.867 15.568 180.682 15.362 180.496 15.149 180.27 14.984 180.002 14.867 179.74 14.743 179.455 14.649 179.148 14.587 178.832 14.519 178.526 14.464 178.228 14.421V14.421L174.926 13.894C174.303 13.806 173.688 13.64 173.082 13.396 172.47 13.161 171.912 12.827 171.407 12.394 170.904 11.969 170.475 11.444 170.12 10.822 169.766 10.2 169.52 9.46 169.385 8.602V8.602C169.229 7.616 169.272 6.705 169.514 5.871 169.757 5.043 170.167 4.31 170.745 3.672 171.322 3.034 172.042 2.508 172.905 2.095 173.766 1.675 174.737 1.38 175.817 1.209V1.209C176.669 1.074 177.471 1.048 178.225 1.129 178.978 1.211 179.668 1.372 180.295 1.612 180.921 1.852 181.467 2.154 181.933 2.516 182.399 2.879 182.773 3.273 183.055 3.699V3.699L184.432 3.481 185.089 7.635ZM188.069 4.547L187.983 0.343 204.76 0 204.907 7.189 200.374 7.281 200.313 4.297 194.899 4.408 194.984 8.561 199.168 8.475 199.25 12.506 195.066 12.591 195.166 17.472 200.58 17.362 200.504 13.629 205.037 13.536 205.191 21.084 188.414 21.427 188.336 17.612 190.551 17.567 190.284 4.502ZM206.149 21.412L206.821 17.656 208.75 18.001 211.121 4.765 209.193 4.42 209.868 0.654 218.409 2.184 221.853 18.265 230.212 4.298 238.884 5.852 238.21 9.618 236.281 9.273 233.91 22.509 235.808 22.849 235.135 26.605 227.371 25.214 228.044 21.458 229.467 21.713 231.605 9.779 222.629 24.114 218.782 23.425 215.145 7.257 213.081 18.777 214.626 19.054 213.953 22.81ZM243.034 11.425L244.463 7.876 253.502 11.513C254.505 11.916 255.364 12.446 256.08 13.103 256.799 13.753 257.355 14.467 257.75 15.245 258.151 16.026 258.382 16.834 258.444 17.669 258.506 18.505 258.385 19.3 258.081 20.055V20.055C257.714 20.969 257.234 21.767 256.642 22.45 256.054 23.142 255.357 23.665 254.551 24.019 253.752 24.376 252.849 24.55 251.842 24.543 250.837 24.53 249.742 24.284 248.556 23.807V23.807L245.825 22.708 244.324 26.438 246.122 27.162 244.698 30.702 236.591 27.44 238.015 23.9 240.042 24.716 245.061 12.241ZM251.113 14.676L249.343 13.963 247.23 19.216 249 19.928C249.983 20.324 250.846 20.432 251.589 20.252 252.333 20.072 252.884 19.534 253.244 18.64V18.64C253.581 17.802 253.571 17.039 253.214 16.35 252.867 15.658 252.166 15.099 251.113 14.676ZM261.376 39.846V39.846C260.558 39.349 259.842 38.762 259.228 38.086 258.621 37.413 258.115 36.678 257.711 35.881 257.317 35.081 257.029 34.238 256.847 33.352 256.665 32.465 256.597 31.564 256.641 30.647 256.689 29.724 256.853 28.803 257.131 27.884 257.405 26.971 257.805 26.082 258.33 25.217V25.217C258.856 24.352 259.462 23.584 260.149 22.913 260.836 22.242 261.578 21.673 262.374 21.204 263.171 20.736 264.004 20.378 264.874 20.13 265.745 19.883 266.624 19.753 267.512 19.74 268.405 19.73 269.291 19.84 270.168 20.069 271.051 20.301 271.902 20.665 272.72 21.162V21.162C273.532 21.655 274.245 22.24 274.859 22.917 275.478 23.596 275.986 24.333 276.384 25.127 276.788 25.924 277.081 26.766 277.263 27.652 277.445 28.539 277.512 29.443 277.463 30.366 277.421 31.292 277.261 32.215 276.983 33.134 276.705 34.053 276.303 34.945 275.778 35.81V35.81C275.256 36.669 274.652 37.434 273.964 38.105 273.277 38.776 272.532 39.344 271.73 39.809 270.937 40.271 270.106 40.626 269.235 40.874 268.365 41.121 267.481 41.253 266.584 41.268 265.696 41.281 264.808 41.169 263.919 40.934 263.036 40.702 262.188 40.339 261.376 39.846ZM263.644 36.111V36.111C264.333 36.529 265.055 36.764 265.809 36.813 266.563 36.863 267.301 36.76 268.025 36.503 268.747 36.237 269.427 35.834 270.067 35.295 270.706 34.755 271.257 34.105 271.718 33.346V33.346C272.183 32.58 272.506 31.784 272.688 30.958 272.875 30.136 272.916 29.345 272.809 28.584 272.701 27.814 272.454 27.108 272.068 26.466 271.672 25.826 271.136 25.3 270.458 24.888V24.888C269.774 24.473 269.057 24.238 268.306 24.182 267.558 24.136 266.821 24.244 266.093 24.506 265.376 24.767 264.692 25.168 264.043 25.709 263.394 26.251 262.837 26.905 262.372 27.671V27.671C261.911 28.431 261.591 29.221 261.413 30.041 261.235 30.861 261.195 31.652 261.292 32.415 261.398 33.175 261.644 33.877 262.03 34.519 262.422 35.165 262.96 35.695 263.644 36.111ZM282.729 32.867L285.239 29.979 293.663 37.298C294.484 38.011 295.107 38.77 295.531 39.573 295.966 40.377 296.225 41.173 296.31 41.962 296.395 42.76 296.318 43.532 296.08 44.275 295.846 45.024 295.474 45.692 294.963 46.281V46.281C294.496 46.817 294.027 47.238 293.554 47.543 293.086 47.852 292.604 48.068 292.108 48.19 291.618 48.316 291.107 48.357 290.576 48.312 290.045 48.276 289.488 48.177 288.904 48.015V48.015C289.104 48.505 289.176 49.057 289.123 49.672 289.069 50.286 288.854 50.951 288.477 51.665V51.665L287.215 54.197 288.532 55.341 285.856 58.451 281.242 54.442 283.889 50.112C284.218 49.609 284.459 49.139 284.612 48.701 284.766 48.264 284.824 47.848 284.786 47.453 284.749 47.058 284.615 46.675 284.385 46.303 284.161 45.936 283.834 45.567 283.406 45.194V45.194L282.051 44.017 279.044 47.478 280.507 48.75 278.005 51.63 271.408 45.899 273.91 43.018 275.56 44.451 284.379 34.3ZM289.954 39.143L287.863 37.327 284.513 41.183 286.604 42.999C287.006 43.349 287.399 43.622 287.781 43.818 288.164 44.024 288.536 44.148 288.898 44.191 289.264 44.228 289.612 44.182 289.942 44.052 290.272 43.922 290.581 43.692 290.868 43.362V43.362C291.402 42.747 291.597 42.074 291.453 41.343 291.31 40.621 290.811 39.888 289.954 39.143ZM299.431 47.963L302.275 45.42 308.292 52.148 305.448 54.692 303.964 53.033 293.933 62.003 295.417 63.662 292.572 66.206 286.555 59.478 289.4 56.934 290.856 58.563 300.887 49.592ZM307.017 56.873L310.175 54.713 314.951 61.698 311.793 63.858 310.699 62.257 303.477 67.196C302.817 67.648 302.31 68.106 301.957 68.571 301.6 69.031 301.368 69.496 301.259 69.968 301.153 70.43 301.157 70.891 301.273 71.35 301.388 71.81 301.595 72.257 301.892 72.692V72.692C302.204 73.149 302.543 73.522 302.906 73.812 303.28 74.103 303.695 74.287 304.153 74.363 304.617 74.436 305.128 74.384 305.688 74.209 306.253 74.029 306.888 73.699 307.594 73.216V73.216L314.816 68.277 313.548 66.423 316.706 64.263 321.482 71.248 318.324 73.408 317.375 72.019 310.601 76.651C309.377 77.489 308.168 78.059 306.974 78.361 305.777 78.658 304.641 78.723 303.565 78.555 302.484 78.392 301.488 78.013 300.576 77.418 299.665 76.824 298.882 76.05 298.23 75.096V75.096C297.589 74.159 297.157 73.163 296.932 72.107 296.716 71.053 296.724 70.004 296.954 68.96 297.187 67.907 297.644 66.886 298.326 65.897 299.013 64.914 299.94 64.023 301.109 63.224V63.224L308.094 58.447ZM304.396 84.17L307.917 82.7 308.671 84.508 321.082 79.331 320.327 77.523 323.858 76.05 327.199 84.058 315.549 95.665 331.816 95.124 335.209 103.256 331.678 104.729 330.923 102.921 318.513 108.098 319.256 109.878 315.734 111.347 312.697 104.068 316.219 102.598 316.776 103.933 327.965 99.265 311.052 99.486 309.548 95.879 321.167 84.063 310.366 88.569 310.97 90.018 307.449 91.487ZM79.45 183.448L80.234 183.206C80.436 183.115 80.609 182.983 80.756 182.809 80.909 182.633 81.024 182.437 81.101 182.22 81.175 181.997 81.216 181.759 81.224 181.506 81.232 181.253 81.198 181.002 81.121 180.754V180.754C81.051 180.525 80.963 180.32 80.856 180.138 80.75 179.956 80.626 179.808 80.484 179.695 80.339 179.575 80.176 179.496 79.993 179.46 79.81 179.423 79.61 179.438 79.395 179.504V179.504C79.127 179.587 78.933 179.711 78.812 179.877 78.689 180.036 78.607 180.223 78.565 180.436 78.517 180.651 78.498 180.879 78.508 181.119 78.515 181.353 78.515 181.585 78.508 181.817V181.817L78.439 184.521C78.426 184.897 78.362 185.268 78.245 185.633 78.133 185.989 77.961 186.325 77.729 186.64 77.495 186.948 77.204 187.223 76.857 187.466 76.509 187.709 76.094 187.905 75.61 188.054V188.054C74.957 188.255 74.322 188.319 73.705 188.244 73.094 188.167 72.527 187.974 72.002 187.663 71.481 187.344 71.024 186.916 70.63 186.379 70.227 185.838 69.912 185.198 69.684 184.46V184.46C69.525 183.943 69.433 183.435 69.408 182.935 69.378 182.443 69.415 181.97 69.518 181.516 69.623 181.069 69.785 180.654 70.004 180.272 70.218 179.898 70.496 179.57 70.838 179.285V179.285L70.554 178.364 73.24 177.537 74.236 180.771 73.677 180.943C73.41 181.026 73.178 181.144 72.982 181.297 72.779 181.453 72.62 181.645 72.504 181.874 72.393 182.094 72.332 182.349 72.321 182.638 72.31 182.928 72.359 183.249 72.468 183.602V183.602C72.633 184.138 72.883 184.508 73.218 184.713 73.544 184.913 73.93 184.944 74.374 184.807V184.807C74.596 184.739 74.767 184.633 74.887 184.488 75.014 184.342 75.107 184.177 75.165 183.995 75.221 183.806 75.253 183.607 75.26 183.397 75.273 183.185 75.28 182.976 75.28 182.768V182.768L75.319 180.524C75.318 180.102 75.37 179.678 75.475 179.252 75.58 178.826 75.749 178.424 75.983 178.044 76.218 177.671 76.527 177.336 76.908 177.04 77.289 176.744 77.757 176.51 78.312 176.339V176.339C78.953 176.142 79.561 176.083 80.136 176.163 80.714 176.25 81.238 176.454 81.709 176.774 82.188 177.098 82.61 177.527 82.974 178.058 83.332 178.592 83.619 179.212 83.836 179.918V179.918C84.006 180.467 84.097 180.996 84.112 181.507 84.132 182.016 84.092 182.49 83.991 182.929 83.89 183.368 83.742 183.757 83.546 184.096 83.352 184.442 83.126 184.73 82.868 184.96V184.96L83.142 185.852 80.447 186.682ZM73.169 193.445L75.525 192.459 76.087 193.802 84.507 190.275 83.846 188.695 82.152 189.405 80.975 186.595 84.949 184.931 89.922 196.804 85.948 198.468 84.768 195.649 86.461 194.94 85.708 193.142 77.288 196.669 77.863 198.041 75.507 199.027ZM80.762 209.453L83.01 208.24 83.677 209.476 85.172 207.947 83.106 204.12 81.008 204.53 81.719 205.848 79.471 207.061 76.923 202.34 79.171 201.127 79.668 202.048 91.708 199.931 93.486 203.226 85.071 212.058 85.558 212.96 83.311 214.173ZM90.285 202.693L85.56 203.635 86.919 206.153ZM93.859 209.105L95.975 207.657 100.204 213.835C100.614 214.433 100.89 215.031 101.034 215.629 101.178 216.226 101.211 216.788 101.132 217.315 101.057 217.847 100.877 218.334 100.592 218.778 100.313 219.218 99.956 219.586 99.522 219.883V219.883C99.127 220.154 98.751 220.349 98.394 220.469 98.037 220.589 97.689 220.65 97.349 220.65 97.012 220.641 96.671 220.58 96.328 220.466 95.991 220.349 95.647 220.191 95.296 219.992V219.992C95.344 220.341 95.299 220.711 95.161 221.104 95.02 221.49 94.767 221.883 94.402 222.282V222.282L93.159 223.717 93.814 224.674 91.549 226.249 89.231 222.864 91.689 220.498C91.985 220.229 92.219 219.965 92.39 219.707 92.567 219.445 92.675 219.184 92.713 218.926 92.758 218.664 92.737 218.392 92.652 218.11 92.571 217.834 92.422 217.538 92.206 217.222V217.222L91.528 216.232 88.98 217.976 89.711 219.043 87.603 220.485 84.295 215.653 86.402 214.21 87.231 215.42 94.687 210.316ZM97.486 214.403L96.437 212.872 93.61 214.807 94.659 216.339C94.86 216.632 95.065 216.877 95.274 217.074 95.493 217.272 95.714 217.414 95.939 217.501 96.174 217.589 96.409 217.618 96.646 217.589 96.877 217.563 97.114 217.467 97.356 217.301V217.301C97.808 216.992 98.048 216.587 98.078 216.086 98.112 215.591 97.915 215.03 97.486 214.403ZM94.431 229.583L96.366 227.916 97.316 229.02 104.233 223.062 103.115 221.764 101.724 222.962 99.736 220.654 103 217.843 111.401 227.596 108.137 230.408 106.142 228.092 107.533 226.894 106.261 225.417 99.345 231.375 100.315 232.501 98.38 234.168ZM112.042 231.835L113.741 229.914 118.282 233.931 116.583 235.851 115.692 235.063 114.959 238.756 118.611 237.645 117.597 236.748 119.296 234.828 123.837 238.844 122.138 240.765 121.354 240.071 114.419 241.564 112.217 244.054 113.5 245.189 111.808 247.102 107.083 242.922 108.775 241.009 109.951 242.049 112.173 239.537 112.972 232.657ZM121.181 254.515V254.515C120.66 254.149 120.211 253.725 119.831 253.242 119.448 252.764 119.142 252.248 118.913 251.694 118.679 251.146 118.52 250.57 118.434 249.967 118.353 249.367 118.35 248.759 118.424 248.142 118.497 247.526 118.649 246.918 118.877 246.318 119.101 245.714 119.407 245.136 119.796 244.581V244.581C120.185 244.027 120.627 243.54 121.123 243.12 121.609 242.701 122.13 242.352 122.685 242.073 123.236 241.8 123.807 241.599 124.398 241.471 124.999 241.342 125.597 241.294 126.192 241.327 126.787 241.36 127.376 241.473 127.959 241.665 128.539 241.864 129.089 242.145 129.609 242.511V242.511C130.135 242.88 130.59 243.304 130.973 243.781 131.352 244.265 131.658 244.781 131.892 245.329 132.125 245.877 132.283 246.456 132.365 247.065 132.445 247.664 132.453 248.272 132.389 248.887 132.315 249.503 132.167 250.113 131.944 250.717 131.711 251.322 131.4 251.902 131.011 252.456V252.456C130.626 253.004 130.188 253.491 129.698 253.915 129.206 254.33 128.683 254.677 128.128 254.956 127.567 255.231 126.991 255.432 126.4 255.56 125.803 255.684 125.207 255.729 124.613 255.696 124.014 255.668 123.425 255.556 122.845 255.357 122.262 255.165 121.707 254.884 121.181 254.515ZM122.866 252.114V252.114C123.309 252.424 123.781 252.614 124.284 252.683 124.787 252.752 125.289 252.716 125.789 252.574 126.284 252.429 126.757 252.189 127.209 251.855 127.661 251.52 128.058 251.11 128.4 250.623V250.623C128.746 250.13 129.001 249.612 129.166 249.068 129.322 248.525 129.379 247.997 129.338 247.484 129.307 246.969 129.174 246.487 128.938 246.037 128.708 245.592 128.372 245.214 127.929 244.903V244.903C127.493 244.597 127.023 244.409 126.52 244.34 126.023 244.275 125.527 244.315 125.032 244.46 124.535 244.596 124.058 244.83 123.601 245.16 123.145 245.5 122.744 245.916 122.398 246.409V246.409C122.056 246.895 121.805 247.408 121.644 247.947 121.488 248.49 121.429 249.02 121.466 249.539 121.497 250.054 121.628 250.534 121.858 250.98 122.094 251.429 122.43 251.808 122.866 252.114ZM134.054 248.965L135.275 246.71 140.272 249.416 139.051 251.671 137.905 251.051 135.107 256.219C134.853 256.688 134.69 257.117 134.619 257.506 134.552 257.89 134.557 258.239 134.636 258.553 134.714 258.868 134.857 259.143 135.063 259.38 135.279 259.613 135.543 259.815 135.856 259.984V259.984C136.174 260.156 136.49 260.277 136.803 260.345 137.113 260.404 137.415 260.385 137.709 260.288 138.009 260.193 138.298 260.004 138.577 259.719 138.858 259.444 139.135 259.054 139.409 258.549V258.549L142.207 253.38 140.891 252.667 142.112 250.412 147.099 253.113 145.878 255.368 144.886 254.831 142.264 259.674C141.788 260.552 141.24 261.263 140.62 261.805 139.996 262.354 139.338 262.744 138.645 262.975 137.952 263.207 137.241 263.285 136.512 263.209 135.784 263.133 135.079 262.911 134.4 262.543V262.543C133.726 262.179 133.163 261.718 132.71 261.162 132.26 260.599 131.941 259.968 131.753 259.267 131.571 258.57 131.533 257.822 131.638 257.024 131.744 256.225 132.023 255.408 132.475 254.573V254.573L135.181 249.576ZM146.782 255.699L147.747 253.323 154.684 256.141C155.356 256.413 155.916 256.759 156.366 257.178 156.816 257.597 157.153 258.048 157.378 258.53 157.609 259.015 157.729 259.521 157.736 260.048 157.746 260.569 157.652 261.073 157.454 261.561V261.561C157.274 262.004 157.068 262.375 156.836 262.672 156.605 262.969 156.348 263.211 156.065 263.399 155.778 263.578 155.461 263.715 155.112 263.809 154.767 263.898 154.392 263.956 153.99 263.984V263.984C154.222 264.249 154.389 264.582 154.491 264.985 154.587 265.386 154.592 265.853 154.508 266.387V266.387L154.264 268.27 155.338 268.706 154.319 271.27 150.518 269.726 151.261 266.397C151.359 266.009 151.409 265.66 151.409 265.35 151.412 265.034 151.358 264.757 151.248 264.52 151.14 264.277 150.973 264.062 150.746 263.874 150.526 263.689 150.239 263.524 149.884 263.38V263.38L148.772 262.928 147.611 265.789 148.808 266.275 147.847 268.642 142.421 266.438 143.382 264.071 144.741 264.623 148.141 256.251ZM152.731 258.115L151.011 257.417 149.722 260.591 151.442 261.289C151.771 261.423 152.078 261.514 152.36 261.563 152.652 261.607 152.916 261.604 153.151 261.552 153.395 261.496 153.608 261.39 153.789 261.235 153.967 261.086 154.112 260.875 154.223 260.603V260.603C154.428 260.096 154.406 259.625 154.154 259.191 153.909 258.759 153.434 258.401 152.731 258.115ZM162.804 261.994L163.506 259.262 174.414 262.064 173.212 266.743 170.262 265.985 170.762 264.038 167.245 263.135 166.551 265.837 169.273 266.536 168.599 269.159 165.877 268.459 165.061 271.639 168.578 272.542 169.203 270.108 172.153 270.866 170.893 275.773 159.985 272.972 160.62 270.498 162.06 270.868 164.245 262.364ZM174.715 264.631L175.1 262.095 181.56 263.075C182.276 263.184 182.922 263.396 183.497 263.711 184.063 264.032 184.538 264.416 184.92 264.861 185.295 265.305 185.57 265.796 185.744 266.335 185.912 266.872 185.954 267.411 185.872 267.952V267.952C185.774 268.601 185.583 269.198 185.3 269.743 185.024 270.282 184.652 270.73 184.183 271.088 183.707 271.444 183.143 271.698 182.491 271.848 181.832 271.997 181.076 272.007 180.225 271.878V271.878L178.277 271.582 177.873 274.249 179.151 274.443 178.768 276.968 172.977 276.09 173.36 273.565 174.81 273.785 176.165 264.851ZM180.496 265.507L179.228 265.315 178.657 269.077 179.925 269.27C180.621 269.375 181.198 269.311 181.656 269.076 182.112 268.848 182.389 268.412 182.487 267.77V267.77C182.577 267.175 182.456 266.676 182.122 266.273 181.788 265.876 181.246 265.621 180.496 265.507ZM187.116 266.369L187.297 263.811 193.344 264.238 193.163 266.796 191.669 266.691 191.033 275.705 192.526 275.81 192.346 278.358 186.3 277.931 186.479 275.383 187.943 275.487 188.579 266.473ZM206.268 268.318L203.386 268.36C203.03 267.866 202.711 267.515 202.427 267.308 202.144 267.106 201.837 266.964 201.508 266.88 201.185 266.796 200.846 266.756 200.491 266.761V266.761C199.971 266.769 199.487 266.892 199.039 267.131 198.598 267.37 198.217 267.694 197.894 268.102 197.572 268.503 197.322 268.972 197.146 269.508 196.969 270.044 196.885 270.61 196.893 271.204V271.204C196.902 271.813 196.999 272.379 197.185 272.903 197.377 273.434 197.641 273.895 197.974 274.287 198.302 274.685 198.689 274.998 199.137 275.224 199.592 275.449 200.086 275.559 200.619 275.551V275.551C200.995 275.545 201.343 275.479 201.662 275.351 201.989 275.223 202.281 275.058 202.537 274.856 202.801 274.654 203.03 274.421 203.225 274.159 203.419 273.903 203.573 273.634 203.685 273.352V273.352L206.702 274.149C206.513 274.76 206.237 275.328 205.876 275.853 205.507 276.379 205.062 276.833 204.541 277.217 204.021 277.607 203.434 277.917 202.78 278.145 202.127 278.374 201.421 278.493 200.662 278.504V278.504C200.026 278.514 199.413 278.434 198.822 278.265 198.232 278.102 197.681 277.864 197.171 277.55 196.66 277.243 196.193 276.867 195.769 276.422 195.353 275.983 194.993 275.493 194.691 274.95 194.389 274.407 194.155 273.826 193.989 273.206 193.816 272.58 193.724 271.928 193.714 271.251V271.251C193.699 270.239 193.863 269.286 194.206 268.392 194.548 267.498 195.022 266.718 195.628 266.053 196.234 265.381 196.951 264.847 197.78 264.452 198.601 264.057 199.491 263.852 200.448 263.838V263.838C201.214 263.827 201.861 263.91 202.39 264.087 202.913 264.271 203.493 264.639 204.13 265.19V265.19L206.222 265.159ZM211.366 266.349L210.998 263.532 216.297 262.841 216.665 265.658 215.688 265.785 216.944 275.407C216.873 275.927 216.733 276.414 216.524 276.869 216.32 277.316 216.115 277.725 215.908 278.097 215.702 278.469 215.409 278.945 215.029 279.525V279.525L212.427 279.72C212.721 279.116 212.946 278.621 213.102 278.236 213.266 277.849 213.424 277.421 213.577 276.953 213.73 276.492 213.832 276.006 213.883 275.496V275.496L212.668 266.179ZM226.141 275.468V275.468C225.519 275.6 224.902 275.64 224.29 275.588 223.679 275.543 223.093 275.416 222.531 275.206 221.971 275.004 221.441 274.728 220.94 274.38 220.447 274.03 219.999 273.618 219.598 273.144 219.197 272.67 218.855 272.145 218.572 271.569 218.282 270.994 218.067 270.376 217.927 269.714V269.714C217.786 269.052 217.731 268.396 217.761 267.746 217.785 267.105 217.885 266.486 218.059 265.89 218.234 265.301 218.477 264.746 218.786 264.226 219.1 263.698 219.472 263.227 219.902 262.815 220.332 262.402 220.816 262.048 221.354 261.752 221.894 261.462 222.475 261.252 223.097 261.12V261.12C223.726 260.986 224.345 260.942 224.956 260.987 225.568 261.039 226.155 261.167 226.715 261.369 227.275 261.572 227.806 261.851 228.308 262.206 228.801 262.555 229.251 262.963 229.658 263.429 230.059 263.903 230.404 264.427 230.694 265.002 230.979 265.585 231.191 266.207 231.332 266.87V266.87C231.471 267.525 231.529 268.177 231.505 268.825 231.474 269.468 231.371 270.087 231.197 270.683 231.016 271.281 230.771 271.84 230.462 272.36 230.146 272.881 229.774 273.348 229.344 273.761 228.916 274.18 228.432 274.535 227.892 274.824 227.354 275.12 226.77 275.335 226.141 275.468ZM225.532 272.598V272.598C226.061 272.486 226.522 272.27 226.915 271.948 227.308 271.627 227.623 271.235 227.861 270.773 228.091 270.311 228.238 269.801 228.301 269.243 228.365 268.684 228.335 268.114 228.211 267.532V267.532C228.086 266.943 227.881 266.403 227.595 265.911 227.303 265.428 226.956 265.026 226.553 264.707 226.154 264.379 225.711 264.148 225.221 264.014 224.738 263.879 224.232 263.867 223.704 263.979V263.979C223.182 264.09 222.724 264.306 222.331 264.627 221.945 264.947 221.636 265.337 221.405 265.799 221.167 266.255 221.012 266.763 220.942 267.323 220.881 267.888 220.912 268.465 221.037 269.054V269.054C221.16 269.636 221.365 270.169 221.649 270.654 221.94 271.138 222.289 271.542 222.693 271.869 223.091 272.197 223.532 272.429 224.015 272.564 224.505 272.697 225.011 272.709 225.532 272.598ZM230.847 262.264L230.027 259.835 235.411 258.018 236.231 260.448 234.997 260.864 236.875 266.433C237.046 266.939 237.25 267.35 237.486 267.667 237.721 267.977 237.98 268.211 238.264 268.368 238.548 268.525 238.847 268.608 239.16 268.618 239.478 268.619 239.806 268.562 240.143 268.449V268.449C240.486 268.333 240.789 268.184 241.052 268.001 241.307 267.814 241.498 267.58 241.627 267.298 241.762 267.015 241.821 266.674 241.802 266.276 241.792 265.883 241.695 265.414 241.511 264.869V264.869L239.633 259.3 238.214 259.779 237.394 257.349 242.769 255.536 243.588 257.966 242.519 258.327 244.28 263.546C244.599 264.492 244.746 265.377 244.721 266.201 244.698 267.031 244.535 267.779 244.233 268.444 243.93 269.109 243.503 269.682 242.951 270.164 242.399 270.646 241.757 271.011 241.025 271.258V271.258C240.3 271.503 239.579 271.601 238.863 271.554 238.145 271.501 237.465 271.304 236.824 270.965 236.189 270.623 235.615 270.142 235.103 269.521 234.59 268.9 234.182 268.139 233.878 267.239V267.239L232.062 261.855ZM244.445 257.53L243.362 255.206 250.149 252.044C250.806 251.737 251.441 251.562 252.054 251.518 252.667 251.474 253.227 251.534 253.733 251.697 254.246 251.858 254.698 252.116 255.089 252.469 255.477 252.816 255.782 253.229 256.004 253.706V253.706C256.206 254.14 256.338 254.543 256.398 254.914 256.458 255.286 256.46 255.64 256.405 255.975 256.341 256.306 256.225 256.632 256.057 256.952 255.886 257.265 255.674 257.579 255.421 257.893V257.893C255.772 257.903 256.13 258.008 256.495 258.207 256.853 258.41 257.199 258.724 257.533 259.149V259.149L258.746 260.61 259.796 260.12 260.98 262.613 257.261 264.345 255.329 261.534C255.112 261.198 254.89 260.924 254.664 260.713 254.434 260.495 254.195 260.346 253.946 260.266 253.695 260.18 253.423 260.155 253.131 260.193 252.846 260.228 252.53 260.326 252.183 260.488V260.488L251.095 260.995 252.399 263.793 253.57 263.248 254.649 265.563 249.34 268.036 248.261 265.721 249.591 265.102 245.774 256.911ZM250.265 254.818L248.582 255.603 250.029 258.708 251.712 257.924C252.034 257.774 252.309 257.611 252.538 257.437 252.769 257.254 252.946 257.058 253.068 256.851 253.193 256.634 253.26 256.406 253.27 256.168 253.283 255.936 253.227 255.686 253.103 255.42V255.42C252.872 254.924 252.511 254.62 252.022 254.509 251.539 254.395 250.953 254.498 250.265 254.818ZM264.219 247.001L262.874 244.818 267.45 241.999 268.795 244.182 267.817 244.785 273.896 254.653 271.259 256.278 261.448 251.576 264.907 257.191 265.911 256.572 267.251 258.747 262.683 261.561 261.344 259.386 262.339 258.773 257.6 251.079 256.622 251.681 255.277 249.498 258.918 247.255 268.759 252.083 265.241 246.372ZM269.519 243.836L267.783 241.613 276.659 234.681 279.633 238.489 277.232 240.364 275.995 238.779 273.133 241.014 274.85 243.213 277.065 241.483 278.732 243.617 276.517 245.347 278.537 247.934 281.399 245.699 279.852 243.718 282.253 241.843 285.372 245.837 276.495 252.769 274.923 250.756 276.096 249.841 270.692 242.921ZM278.393 236.468L276.605 234.63 280.95 230.403 282.738 232.241 281.885 233.071 285.513 234.079 284.679 230.353 283.709 231.297 281.921 229.459 286.266 225.232 288.054 227.071 287.304 227.8 288.273 234.828 290.59 237.21 291.818 236.016 293.599 237.846 289.077 242.245 287.296 240.414 288.421 239.32 286.083 236.915 279.282 235.603ZM296.57 216.252L294.529 214.7 298.2 209.876 300.241 211.428 299.34 212.612 306.532 218.084 307.432 216.9 309.465 218.447 305.794 223.271 303.761 221.725 304.656 220.549 301.766 218.35 297.897 223.436 300.786 225.634 301.693 224.443 303.726 225.989 300.055 230.813 298.022 229.267 298.91 228.1 291.719 222.628 290.831 223.795 288.79 222.242 292.461 217.418 294.502 218.971 293.595 220.162 295.938 221.945 299.807 216.86 297.464 215.077ZM301.058 210.409L298.625 208.982 304.323 199.268 308.49 201.712 306.949 204.339 305.215 203.322 303.378 206.454 305.784 207.866 307.206 205.442 309.542 206.812 308.12 209.236 310.951 210.896 312.788 207.764 310.621 206.493 312.162 203.865 316.532 206.429 310.835 216.143 308.631 214.851 309.384 213.568 301.811 209.126ZM306.855 199.713L304.519 198.657 307.604 191.834C307.902 191.174 308.27 190.627 308.706 190.194 309.142 189.76 309.605 189.441 310.096 189.235 310.59 189.023 311.1 188.923 311.627 188.937 312.148 188.947 312.648 189.061 313.128 189.277V189.277C313.564 189.475 313.926 189.695 314.214 189.937 314.502 190.18 314.734 190.447 314.911 190.737 315.078 191.03 315.202 191.353 315.283 191.704 315.358 192.053 315.402 192.43 315.415 192.833V192.833C315.688 192.611 316.027 192.457 316.434 192.371 316.838 192.291 317.305 192.303 317.836 192.408V192.408L319.707 192.726 320.185 191.669 322.707 192.788 321.017 196.526 317.719 195.654C317.335 195.54 316.988 195.477 316.679 195.465 316.363 195.45 316.085 195.493 315.844 195.594 315.597 195.692 315.375 195.851 315.178 196.07 314.984 196.282 314.809 196.563 314.651 196.912V196.912L314.157 198.005 316.97 199.277 317.502 198.1 319.829 199.152 317.416 204.489 315.089 203.436 315.693 202.1 307.46 198.377ZM309.501 193.863L308.736 195.554 311.857 196.966 312.622 195.274C312.769 194.95 312.872 194.648 312.931 194.367 312.987 194.077 312.994 193.814 312.951 193.577 312.905 193.33 312.807 193.114 312.659 192.927 312.518 192.743 312.313 192.59 312.045 192.469V192.469C311.546 192.243 311.075 192.248 310.631 192.483 310.19 192.711 309.814 193.171 309.501 193.863ZM312.549 187.369L309.871 186.482 313.416 175.792 318.002 177.312 317.043 180.204 315.135 179.571 313.992 183.018 316.64 183.896 317.524 181.228 320.095 182.08 319.21 184.748 322.326 185.781 323.468 182.334 321.083 181.544 322.042 178.652 326.851 180.247 323.307 190.937 320.883 190.133 321.351 188.721 313.017 185.958ZM60.311 143.694C60.311 139.113 64.025 135.4 68.605 135.4 73.186 135.4 76.899 139.113 76.899 143.694 76.899 148.274 73.186 151.988 68.605 151.988 64.025 151.988 60.311 148.274 60.311 143.694ZM318.535 143.694C318.535 139.113 322.249 135.4 326.829 135.4 331.41 135.4 335.123 139.113 335.123 143.694 335.123 148.274 331.41 151.988 326.829 151.988 322.249 151.988 318.535 148.274 318.535 143.694Z" fill="#7a26c1" data-fill-palette-color="primary"></path></svg></g></svg></g></svg></g></svg></g><defs></defs></svg><rect width="395.52" height="279.72" fill="none" stroke="none" visibility="hidden"></rect></g></svg></g></svg>